HIERARCHY
ROOT SpineBase
{
  OFFSET 0.000000 0.000000 0.000000
  CHANNELS 6 Xposition Yposition Zposition Zrotation Xrotation Yrotation
  JOINT SpineMid
  {
    OFFSET -0.000000 31.422474 0.000000
    CHANNELS 3 Zrotation Xrotation Yrotation
    JOINT SpineShoulder
    {
      OFFSET -0.004458 23.330356 -0.856069
      CHANNELS 3 Zrotation Xrotation Yrotation
      JOINT Neck
      {
        OFFSET -0.002836 7.736538 -0.640285
        CHANNELS 3 Zrotation Xrotation Yrotation
        JOINT Head
        {
          OFFSET 6.403057 12.276550 0.213302
          CHANNELS 3 Zrotation Xrotation Yrotation
          End Site
          {
            OFFSET 0 0 0
          }
        }
      }
      JOINT ShoulderLeft
      {
        OFFSET -11.137925 -1.579077 -13.850847
        CHANNELS 3 Zrotation Xrotation Yrotation
        JOINT ElbowLeft
        {
          OFFSET -6.087260 -23.337150 -6.701028
          CHANNELS 3 Zrotation Xrotation Yrotation
          JOINT WristLeft
          {
            OFFSET 4.955755 -23.272213 -3.967004
            CHANNELS 3 Zrotation Xrotation Yrotation
            JOINT HandLeft
            {
              OFFSET 1.579418 -7.897260 1.114116
              CHANNELS 3 Zrotation Xrotation Yrotation
              JOINT HandTipLeft
              {
                OFFSET 1.387842 -7.583729 1.258600
                CHANNELS 3 Zrotation Xrotation Yrotation
                End Site
                {
                  OFFSET 0 0 0
                }
              }
              JOINT ThumbLeft
              {
                OFFSET 4.054819 1.986623 4.406984
                CHANNELS 3 Zrotation Xrotation Yrotation
                End Site
                {
                  OFFSET 0 0 0
                }
              }
            }
          }
        }
      }
      JOINT ShoulderRight
      {
        OFFSET 14.117246 -5.734694 10.043566
        CHANNELS 3 Zrotation Xrotation Yrotation
        JOINT ElbowRight
        {
          OFFSET 0.127728 -28.207937 0.880358
          CHANNELS 3 Zrotation Xrotation Yrotation
          JOINT WristRight
          {
            OFFSET -1.816092 -26.910145 -7.647485
            CHANNELS 3 Zrotation Xrotation Yrotation
            JOINT HandRight
            {
              OFFSET -1.477844 -4.752436 -2.563123
              CHANNELS 3 Zrotation Xrotation Yrotation
              JOINT HandTipRight
              {
                OFFSET -0.197108 -3.636098 0.942531
                CHANNELS 3 Zrotation Xrotation Yrotation
                End Site
                {
                  OFFSET 0 0 0
                }
              }
              JOINT ThumbRight
              {
                OFFSET 4.361309 -1.121747 1.005747
                CHANNELS 3 Zrotation Xrotation Yrotation
                End Site
                {
                  OFFSET 0 0 0
                }
              }
            }
          }
        }
      }
    }
  }
  JOINT HipLeft
  {
    OFFSET -5.072233 1.841318 -8.394767
    CHANNELS 3 Zrotation Xrotation Yrotation
    JOINT KneeLeft
    {
      OFFSET -11.299106 -30.989906 -1.166071
      CHANNELS 3 Zrotation Xrotation Yrotation
      JOINT AnkleLeft
      {
        OFFSET -8.019399 -35.500099 4.616437
        CHANNELS 3 Zrotation Xrotation Yrotation
        JOINT FootLeft
        {
          OFFSET 5.055545 -5.688381 -8.462629
          CHANNELS 3 Zrotation Xrotation Yrotation
          End Site
          {
            OFFSET 0 0 0
          }
        }
      }
    }
  }
  JOINT HipRight
  {
    OFFSET 5.542936 -0.012114 1.252278
    CHANNELS 3 Zrotation Xrotation Yrotation
    JOINT KneeRight
    {
      OFFSET -8.406144 -33.146238 2.209028
      CHANNELS 3 Zrotation Xrotation Yrotation
      JOINT AnkleRight
      {
        OFFSET -8.987814 -32.883292 3.330672
        CHANNELS 3 Zrotation Xrotation Yrotation
        JOINT FootRight
        {
          OFFSET 3.901709 -7.330743 -1.017869
          CHANNELS 3 Zrotation Xrotation Yrotation
          End Site
          {
            OFFSET 0 0 0
          }
        }
      }
    }
  }
}
MOTION
Frames: 12
Frame Time: 0.033333
-25.974628 74.129290 337.076446 0.000000 0.000000 -42.264500 -0.000000 0.000000 42.264500 -0.000000 0.000000 0.000000 -0.000000 0.000000 0.000000 0.000000 0.000000 0.000000 -0.000000 0.000000 0.000000 -0.000000 0.000000 0.000000 -0.000000 0.000000 0.000000 -0.000000 0.000000 0.000000 0.000000 0.000000 0.000000 0.000000 0.000000 0.000000 -0.000000 0.000000 0.000000 -0.000000 0.000000 0.000000 -0.000000 0.000000 0.000000 -0.000000 0.000000 0.000000 0.000000 0.000000 0.000000 0.000000 0.000000 0.000000 -0.000000 0.000000 42.264500 -0.000000 0.000000 0.000000 -0.000000 0.000000 0.000000 0.000000 0.000000 0.000000 -0.000000 0.000000 42.264500 -0.000000 0.000000 0.000000 -0.000000 0.000000 0.000000 0.000000 0.000000 0.000000
-25.985393 74.143651 337.065440 0.094777 0.025078 -42.226591 -0.053328 -0.082266 42.226532 -0.000000 0.000000 0.000000 -0.000000 0.000000 0.000000 0.000000 0.000000 0.000000 -0.000000 0.000000 0.000000 -0.000000 0.000000 0.000000 -0.000000 0.000000 0.000000 -0.000000 0.000000 0.000000 0.000000 0.000000 0.000000 0.000000 0.000000 0.000000 -0.000000 0.000000 0.000000 3.371651 -0.694597 -0.894431 -0.604862 -3.028192 0.674238 -0.130261 14.860268 0.059255 0.000000 0.000000 0.000000 0.000000 0.000000 0.000000 -0.053328 -0.082266 42.226532 -0.000000 0.000000 0.000000 -2.656821 -6.829666 -2.562231 0.000000 0.000000 0.000000 -0.053328 -0.082266 42.226532 -0.000000 0.000000 0.000000 -0.912480 1.765611 1.082803 0.000000 0.000000 0.000000
-26.000443 74.145442 337.061312 0.172390 0.035889 -42.139974 -0.103750 -0.142276 42.139791 -0.000000 0.000000 0.000000 -0.000000 0.000000 0.000000 0.000000 0.000000 0.000000 -0.000000 0.000000 0.000000 -0.000000 0.000000 0.000000 -0.000000 0.000000 0.000000 -0.431676 1.060737 0.126760 0.000000 0.000000 0.000000 0.000000 0.000000 0.000000 -0.000000 0.000000 0.000000 6.218072 -1.211940 -1.631979 -1.030059 -5.512483 1.312673 -1.829900 24.256292 -0.037603 0.000000 0.000000 0.000000 0.000000 0.000000 0.000000 -0.103750 -0.142276 42.139791 -0.000000 0.000000 0.000000 -5.606461 -13.183805 -5.184139 0.000000 0.000000 0.000000 -0.103750 -0.142276 42.139791 -0.000000 0.000000 0.000000 -1.615176 3.132260 1.942987 0.000000 0.000000 0.000000
-26.019778 74.134662 337.064063 0.232807 0.032441 -42.004197 -0.151289 -0.179898 42.003894 -0.000000 0.000000 0.000000 -0.000000 0.000000 0.000000 0.000000 0.000000 0.000000 -0.000000 0.000000 0.000000 -0.000000 0.000000 0.000000 -0.000000 0.000000 0.000000 -0.689448 1.718020 0.211098 0.000000 0.000000 0.000000 0.000000 0.000000 0.000000 0.821421 -0.841134 0.027850 7.526922 -0.643859 -2.326603 -1.271414 -7.317281 1.792676 -4.326529 30.232701 0.160783 0.000000 0.000000 0.000000 0.000000 0.000000 0.000000 0.622895 -0.523329 42.277956 -0.341822 0.774885 -0.267000 -8.516340 -18.435098 -7.525811 0.000000 0.000000 0.000000 -0.151289 -0.179898 42.003894 -0.000000 0.000000 0.000000 -2.102549 4.128849 2.578099 0.000000 0.000000 0.000000
-26.043399 74.111311 337.073693 0.276017 0.014761 -41.818741 -0.195863 -0.195042 41.818372 -0.000000 0.000000 0.000000 -0.000000 0.000000 0.000000 0.000000 0.000000 0.000000 -0.000000 0.000000 0.000000 0.169950 0.846254 0.149750 -0.172180 -0.845803 -0.152276 -0.973987 2.455969 0.310335 0.000000 0.000000 0.000000 0.000000 0.000000 0.000000 1.013731 -1.204088 0.036826 8.603472 -0.234848 -2.764589 -1.322738 -8.370785 2.004116 -7.301144 33.684259 0.678515 0.000000 0.000000 0.000000 0.000000 0.000000 0.000000 0.722841 -0.575701 42.135648 -0.425968 0.898578 -0.307756 -10.967823 -22.158118 -9.171657 0.000000 0.000000 0.000000 -0.195863 -0.195042 41.818372 -0.000000 0.000000 0.000000 -2.371731 4.778421 2.988006 0.000000 0.000000 0.000000
-26.071306 74.075390 337.090200 0.302032 -0.017109 -41.583020 -0.237274 -0.187663 41.582677 -0.000000 0.000000 0.000000 -0.000000 0.000000 0.000000 0.000000 0.000000 0.000000 -0.000000 0.000000 0.000000 0.209025 0.870881 0.147987 -0.324623 -1.656795 -0.326585 -1.185882 4.052392 0.615132 0.000000 0.000000 0.000000 0.000000 0.000000 0.000000 1.165300 -1.608567 0.045423 8.761538 0.568379 -2.983692 -1.167272 -8.649391 1.876678 -10.620494 35.022133 1.366914 0.000000 0.000000 0.000000 0.000000 0.000000 0.000000 0.772392 -0.568730 41.919341 -0.496787 0.958027 -0.325846 -12.582449 -24.158747 -9.749440 0.000000 0.000000 0.000000 -0.237274 -0.187663 41.582677 -0.000000 0.000000 0.000000 -2.421375 5.096765 3.173808 0.000000 0.000000 0.000000
-26.110314 74.017490 337.086691 0.307290 -0.035612 -41.269562 -0.254454 -0.175922 41.269266 -0.000000 0.000000 0.000000 -0.000000 0.000000 0.000000 0.000000 0.000000 0.000000 -0.000000 0.000000 0.000000 0.283249 0.812558 0.122531 -0.312077 -3.013008 -0.569675 -1.917577 7.180812 1.209935 0.000000 0.000000 0.000000 0.000000 0.000000 0.000000 1.259747 -2.056029 0.052581 6.956574 1.352271 -2.558787 -0.450417 -5.690975 0.512512 -12.777950 34.490395 1.838600 0.000000 0.000000 0.000000 0.000000 0.000000 0.000000 0.839806 -0.541509 41.618356 -0.575354 1.000005 -0.337218 -20.791248 -32.757841 -12.057146 0.000000 0.000000 0.000000 -0.254454 -0.175922 41.269266 -0.000000 0.000000 0.000000 -1.717002 5.597255 3.306824 0.000000 0.000000 0.000000
-26.161614 73.935735 337.084854 0.285261 -0.064331 -40.967335 -0.257573 -0.138450 40.967184 -0.000000 0.000000 0.000000 -0.000000 0.000000 0.000000 0.000000 0.000000 0.000000 0.741205 -0.534291 -0.070223 -0.741891 0.533338 0.077132 -0.158872 -3.952031 -0.814843 -1.747154 9.756663 1.814045 0.000000 0.000000 0.000000 0.000000 0.000000 0.000000 1.329105 -2.646939 0.060156 6.136113 3.265716 -2.554240 -1.169868 -3.976425 0.021220 -15.611216 29.497897 1.598188 0.000000 0.000000 0.000000 0.000000 0.000000 0.000000 0.875449 -0.476111 41.314021 -0.628210 1.001551 -0.335270 -14.470097 -25.223349 -7.923153 0.000000 0.000000 0.000000 -0.257573 -0.138450 40.967184 -0.000000 0.000000 0.000000 -0.711595 4.252072 2.384626 0.000000 0.000000 0.000000
-26.205525 73.862598 337.135145 0.270582 -0.143989 -40.653963 -0.299086 -0.067044 40.654128 -0.000000 0.000000 0.000000 -0.000000 0.000000 0.000000 0.000000 0.000000 0.000000 0.790065 -0.734132 -0.030418 -0.790520 0.733643 0.040541 -0.320710 -5.821639 -1.218751 -3.149944 13.509661 2.678052 0.000000 0.000000 0.000000 0.000000 0.000000 0.000000 1.351456 -3.156004 0.065059 3.359363 5.934826 -1.879079 -2.582132 -2.601890 0.311145 -22.878002 26.488168 -0.845551 0.000000 0.000000 0.000000 0.000000 0.000000 0.000000 0.737056 -0.264712 40.933861 -0.653328 0.828158 -0.272011 -7.313732 -13.947365 -3.227675 0.000000 0.000000 0.000000 -0.299086 -0.067044 40.654128 -0.000000 0.000000 0.000000 -0.759851 3.716713 2.106742 0.000000 0.000000 0.000000
-26.227210 73.821115 337.199861 0.268897 -0.262210 -40.152374 -0.374605 0.027023 40.153078 -0.000000 0.000000 0.000000 -0.000000 0.000000 0.000000 0.000000 0.000000 0.000000 0.812967 -0.893793 0.006069 -0.812971 0.893789 0.006614 -0.238325 -7.121727 -1.462295 -3.178745 14.148966 2.865754 0.000000 0.000000 0.000000 0.000000 0.000000 0.000000 1.458071 -4.057236 0.078686 1.162816 7.840809 -1.233747 -0.032556 -3.390586 -0.422770 -21.898466 19.310518 -1.439397 0.000000 0.000000 0.000000 0.000000 0.000000 0.000000 0.488329 0.018030 40.333942 -0.652001 0.565372 -0.177987 -7.860867 -12.924919 -0.927738 0.000000 0.000000 0.000000 -0.374605 0.027023 40.153078 -0.000000 0.000000 0.000000 -0.566372 3.354569 1.878305 0.000000 0.000000 0.000000
-26.237532 73.789788 337.279581 0.250802 -0.407183 -39.596515 -0.452787 0.153896 39.598014 -0.000000 0.000000 0.000000 -0.000000 0.000000 0.000000 0.000000 0.000000 0.000000 0.744252 -1.127896 0.088227 -0.742659 1.128945 -0.073584 0.238437 -9.548353 -1.837929 -5.016495 16.322633 3.515174 0.000000 0.000000 0.000000 0.000000 0.000000 0.000000 1.516586 -4.880637 0.089733 0.554293 10.217347 -1.162980 3.429355 -7.807357 -0.671264 -25.802286 21.754548 0.329325 0.000000 0.000000 0.000000 0.000000 0.000000 0.000000 -0.452787 0.153896 39.598014 -0.000000 0.000000 0.000000 -6.810512 -9.716474 1.106577 0.000000 0.000000 0.000000 -0.452787 0.153896 39.598014 -0.000000 0.000000 0.000000 -0.803421 3.493681 1.994905 0.000000 0.000000 0.000000
-26.248758 73.776078 337.362452 0.193631 -0.559790 -38.874682 -0.502087 0.314274 38.877005 -0.000000 0.000000 0.000000 0.854893 0.381905 -0.217728 0.000000 0.000000 0.000000 0.617375 -1.336801 0.179488 -0.613352 1.338651 -0.165120 0.585239 -9.565928 -1.763311 -4.856826 16.261643 3.446381 0.000000 0.000000 0.000000 0.000000 0.000000 0.000000 1.496550 -5.140052 0.090464 2.225357 11.492869 -1.946326 4.182675 -8.731352 -1.135867 -27.372610 23.857793 2.004687 0.000000 0.000000 0.000000 0.000000 0.000000 0.000000 -0.502087 0.314274 38.877005 -0.373293 0.733878 -0.211957 -2.553606 -3.668611 1.985495 0.000000 0.000000 0.000000 -0.502087 0.314274 38.877005 -0.000000 0.000000 0.000000 -0.630315 3.604734 2.023441 0.000000 0.000000 0.000000
